<?xml version="1.0" encoding="UTF-8" standalone="no"?>
<svg
   fill="none"
   viewBox="0 0 24 18"
   height="18"
   width="24"
   version="1.1"
   id="svg4"
   sodipodi:docname="menu.svg"
   inkscape:version="1.1.2 (1:1.1+202202050950+0a00cf5339)"
   xmlns:inkscape="http://www.inkscape.org/namespaces/inkscape"
   xmlns:sodipodi="http://sodipodi.sourceforge.net/DTD/sodipodi-0.dtd"
   xmlns="http://www.w3.org/2000/svg"
   xmlns:svg="http://www.w3.org/2000/svg">
  <defs
     id="defs8" />
  <sodipodi:namedview
     id="namedview6"
     pagecolor="#ffffff"
     bordercolor="#666666"
     borderopacity="1.0"
     inkscape:pageshadow="2"
     inkscape:pageopacity="0.0"
     inkscape:pagecheckerboard="0"
     showgrid="false"
     showguides="true"
     inkscape:guide-bbox="true"
     inkscape:zoom="16"
     inkscape:cx="11.78125"
     inkscape:cy="6.09375"
     inkscape:window-width="1920"
     inkscape:window-height="1009"
     inkscape:window-x="0"
     inkscape:window-y="34"
     inkscape:window-maximized="1"
     inkscape:current-layer="layer1"
     height="18px">
    <sodipodi:guide
       position="0,0"
       orientation="-1,0"
       id="guide10"
       inkscape:label=""
       inkscape:locked="false"
       inkscape:color="rgb(0,0,255)" />
    <sodipodi:guide
       position="24,24"
       orientation="0,1"
       id="guide12"
       inkscape:label=""
       inkscape:locked="false"
       inkscape:color="rgb(0,0,255)" />
    <sodipodi:guide
       position="24,0"
       orientation="-1,0"
       id="guide116"
       inkscape:label=""
       inkscape:locked="false"
       inkscape:color="rgb(0,0,255)" />
    <sodipodi:guide
       position="0,0"
       orientation="0,1"
       id="guide132"
       inkscape:label=""
       inkscape:locked="false"
       inkscape:color="rgb(0,0,255)" />
  </sodipodi:namedview>
  <g
     inkscape:groupmode="layer"
     id="layer1"
     inkscape:label="Layer 1"
     style="display:inline">
    <path
       d="M 0,16.5 C 0,17.32845 0.67158009,18 1.5000002,18 H 22.500001 C 23.32845,18 24,17.32845 24,16.5 24,15.67155 23.32845,14.999999 22.500001,14.999999 H 1.5000002 C 0.67158009,14.999999 0,15.67155 0,16.5 Z M 0,8.9999999 C 0,9.8284499 0.67158009,10.5 1.5000002,10.5 H 22.500001 C 23.32845,10.5 24,9.8284499 24,8.9999999 c 0,-0.82845 -0.67155,-1.5 -1.499999,-1.5 H 1.5000002 C 0.67158009,7.4999999 0,8.1715499 0,8.9999999 Z M 0,1.5000002 C 0,2.3284201 0.67158009,3.0000001 1.5000002,3.0000001 H 22.500001 C 23.32845,3.0000001 24,2.3284201 24,1.5000002 24,0.6715801 23.32845,0 22.500001,0 H 1.5000002 C 0.67158009,0 0,0.6715801 0,1.5000002 Z"
       fill="#0d0d0d"
       id="path170"
       style="stroke-width:1.5" />
  </g>
</svg>
