<?xml version="1.0" encoding="UTF-8" standalone="no"?>
<svg
   fill="none"
   viewBox="0 0 24 24"
   height="24"
   width="24"
   version="1.1"
   id="svg6"
   sodipodi:docname="settings.svg"
   inkscape:version="1.1.2 (1:1.1+202202050950+0a00cf5339)"
   xmlns:inkscape="http://www.inkscape.org/namespaces/inkscape"
   xmlns:sodipodi="http://sodipodi.sourceforge.net/DTD/sodipodi-0.dtd"
   xmlns="http://www.w3.org/2000/svg"
   xmlns:svg="http://www.w3.org/2000/svg">
  <defs
     id="defs10" />
  <sodipodi:namedview
     id="namedview8"
     pagecolor="#ffffff"
     bordercolor="#666666"
     borderopacity="1.0"
     inkscape:pageshadow="2"
     inkscape:pageopacity="0.0"
     inkscape:pagecheckerboard="0"
     showgrid="false"
     inkscape:zoom="17.083333"
     inkscape:cx="8.1073171"
     inkscape:cy="18.058537"
     inkscape:window-width="1920"
     inkscape:window-height="1009"
     inkscape:window-x="0"
     inkscape:window-y="34"
     inkscape:window-maximized="1"
     inkscape:current-layer="svg6" />
  <path
     d="m 12,2.4 c -0.66276,0 -1.2,0.537264 -1.2,1.2 0,2.030712 -2.455212,3.047688 -3.891144,1.611768 -0.468624,-0.468636 -1.228428,-0.468636 -1.697052,0 -0.468624,0.468624 -0.468624,1.228428 0,1.697052 C 6.647784,8.3448 5.630676,10.8 3.6,10.8 c -0.662736,0 -1.2,0.53724 -1.2,1.2 0,0.66276 0.537264,1.2 1.2,1.2 2.030832,0 3.047568,2.45532 1.611732,3.89112 -0.468636,0.46872 -0.468636,1.22844 0,1.69716 0.468624,0.4686 1.228416,0.4686 1.697052,0 C 8.34468,17.35236 10.8,18.36924 10.8,20.4 c 0,0.66276 0.53724,1.2 1.2,1.2 0.66276,0 1.2,-0.53724 1.2,-1.2 0,-2.03076 2.4552,-3.04776 3.89124,-1.61184 0.4686,0.46872 1.22844,0.46872 1.69704,0 0.4686,-0.4686 0.4686,-1.22832 0,-1.69704 C 17.35236,15.65532 18.36924,13.2 20.4,13.2 c 0.66276,0 1.2,-0.53724 1.2,-1.2 0,-0.66276 -0.53724,-1.2 -1.2,-1.2 -2.03064,0 -3.04788,-2.45514 -1.61184,-3.891156 0.4686,-0.468636 0.4686,-1.228428 0,-1.697064 -0.4686,-0.468624 -1.22844,-0.468624 -1.69704,0 C 15.6552,6.647748 13.2,5.630628 13.2,3.6 13.2,2.937264 12.66276,2.4 12,2.4 Z M 8.409792,3.332436 C 8.546688,1.46916 10.10172,0 12,0 13.89828,0 15.45336,1.46916 15.59016,3.332436 17.00448,2.111724 19.143,2.17248 20.4852,3.514728 21.82752,4.856976 21.88824,6.99546 20.66748,8.409792 22.53084,8.546652 24,10.10172 24,12 c 0,1.89828 -1.46916,3.45336 -3.3324,3.59016 1.22076,1.41432 1.15992,3.55284 -0.18228,4.89516 -1.34232,1.3422 -3.48072,1.40292 -4.89516,0.18216 C 15.45336,22.53084 13.89828,24 12,24 10.10172,24 8.546652,22.53084 8.409792,20.66748 6.99546,21.88824 4.85694,21.82752 3.514668,20.48532 2.172408,19.143 2.111664,17.00448 3.332424,15.59016 1.46916,15.45336 0,13.89828 0,12 0,10.10172 1.469196,8.546652 3.332508,8.409792 2.111736,6.99546 2.172492,4.856964 3.514752,3.514704 4.857,2.172456 6.99546,2.1117 8.409792,3.332436 Z"
     fill="#0d0d0d"
     id="path2"
     style="stroke-width:1.20001" />
  <path
     d="m 12,9.6 c -0.63648,0 -1.24692,0.25284 -1.69704,0.70296 C 9.85284,10.75308 9.6,11.36352 9.6,12 c 0,0.63648 0.25284,1.24692 0.70296,1.69704 C 10.75308,14.14716 11.36352,14.4 12,14.4 c 0.63648,0 1.24692,-0.25284 1.69704,-0.70296 C 14.14716,13.24692 14.4,12.63648 14.4,12 14.4,11.36352 14.14716,10.75308 13.69704,10.30296 13.24692,9.85284 12.63648,9.6 12,9.6 Z M 8.605884,8.605884 C 9.506064,7.705716 10.72692,7.2 12,7.2 c 1.27308,0 2.49396,0.505716 3.39408,1.405884 C 16.29432,9.506064 16.8,10.72692 16.8,12 c 0,1.27308 -0.50568,2.49396 -1.40592,3.39408 C 14.49396,16.29432 13.27308,16.8 12,16.8 10.72692,16.8 9.506064,16.29432 8.605884,15.39408 7.705716,14.49396 7.2,13.27308 7.2,12 7.2,10.72692 7.705716,9.506064 8.605884,8.605884 Z"
     fill="#0d0d0d"
     id="path4"
     style="stroke-width:1.20001" />
</svg>
